<svg xmlns="http://www.w3.org/2000/svg" viewBox="0 0 512 512" role="img" aria-labelledby="title desc">
  <title id="title">eslint-plugin-secretlint logo</title>
  <desc id="desc">A shield and keyhole mark on a rose and cyan gradient background.</desc>
  <defs>
    <linearGradient id="bg" x1="64" x2="448" y1="64" y2="448" gradientUnits="userSpaceOnUse">
      <stop stop-color="#171827" />
      <stop offset="0.55" stop-color="#db2777" />
      <stop offset="1" stop-color="#164e63" />
    </linearGradient>
    <filter id="shadow" x="-20%" y="-20%" width="140%" height="140%">
      <feDropShadow dx="0" dy="18" stdDeviation="18" flood-color="#0f172a" flood-opacity="0.34" />
    </filter>
  </defs>
  <rect width="512" height="512" rx="112" fill="url(#bg)" />
  <g filter="url(#shadow)">
    <path d="M256 102 382 150v88c0 86-48 142-126 174-78-32-126-88-126-174v-88l126-48Z" fill="#fff1f2" />
    <path d="M256 143 343 176v62c0 60-31 100-87 127-56-27-87-67-87-127v-62l87-33Z" fill="#fbcfe8" />
    <circle cx="256" cy="234" r="42" fill="#be185d" />
    <path d="M236 266h40l14 64h-68l14-64Z" fill="#be185d" />
    <path d="M151 184h54m-69 56h42m181-56h42m-69 56h54" stroke="#06b6d4" stroke-width="18" stroke-linecap="round" />
  </g>
</svg>
